<svg width="56" height="56" viewBox="0 0 56 56" fill="none" xmlns="http://www.w3.org/2000/svg">
<path d="M47.4129 19.3237C50.3411 22.2288 52.0003 25.9954 52.0003 30C52.0003 32.539 51.334 34.9916 50.08 37.1974C50.2822 38.4042 50.8651 40.2359 51.8317 42.63L52.3486 43.8776L52.4625 44.2135L52.5126 44.4099C52.7743 45.7063 52.0911 47.0193 50.8607 47.541C50.4693 47.707 50.0453 47.7817 49.6207 47.7593C45.8047 47.5588 42.7604 46.6283 40.5408 44.9122C38.476 45.6274 36.2663 46 34.0003 46C31.6913 46 29.4392 45.6132 27.3363 44.8689C26.295 44.5003 25.7497 43.3574 26.1182 42.3162C26.4868 41.2749 27.6297 40.7296 28.671 41.0981C30.3452 41.6908 32.146 42 34.0003 42C36.1732 42 38.2709 41.5752 40.1736 40.7708C40.9268 40.4524 41.798 40.6245 42.3734 41.2055C43.4727 42.3154 45.1166 43.0884 47.3368 43.4875L47.9038 43.5794C46.7563 40.6685 46.127 38.4702 46.018 36.8932C45.9886 36.4682 46.0957 36.045 46.3236 35.6852C47.421 33.9523 48.0003 32.0134 48.0003 30C48.0003 27.0923 46.7865 24.3369 44.5957 22.1633C43.8115 21.3854 43.8065 20.1191 44.5845 19.3349C45.3624 18.5508 46.6287 18.5458 47.4129 19.3237ZM22 6C31.8861 6 40 13.0996 40 22C40 30.9004 31.8861 38 22 38C19.734 38 17.5243 37.6274 15.4595 36.9122C13.2399 38.6283 10.1956 39.5588 6.37962 39.7593C5.95507 39.7817 5.53101 39.707 5.1396 39.541C3.90927 39.0193 3.22601 37.7063 3.48771 36.4099L3.53783 36.2135L3.65169 35.8776L3.91894 35.2402C4.94956 32.7528 5.59614 30.8226 5.86184 29.5121L5.92033 29.1974L5.61912 28.6409C4.55993 26.5823 3.99999 24.3275 3.99999 22C3.99999 13.0996 12.1139 6 22 6ZM22 10C14.213 10 7.99999 15.4364 7.99999 22C7.99999 24.0134 8.5793 25.9523 9.67674 27.6852C9.90463 28.045 10.0117 28.4682 9.98232 28.8931C9.88111 30.3576 9.33126 32.3577 8.33446 34.9665L8.0965 35.5794L8.66357 35.4875C10.8838 35.0884 12.5276 34.3154 13.6269 33.2055C14.2023 32.6245 15.0735 32.4524 15.8267 32.7708C17.7294 33.5752 19.8271 34 22 34C29.787 34 36 28.5636 36 22C36 15.4364 29.787 10 22 10Z" fill="#3F8AE0"/>
</svg>
